[img]http://www.hotimg.com/direct/x6PQgw8.jpeg[/img]
[code
 
http://imdb.com/title/tt1306980/

Inspired by a true story, a comedy centered on a 27-year-old guy who learns of his cancer diagnosis, and his subsequent struggle to beat the disease. 

General

Format : MPEG-4
Format profile : Base Media
Codec ID : isom
File size : 1.14 GiB
Duration : 1h 39mn
Overall bit rate mode : Variable
Overall bit rate : 1 633 Kbps
Movie name : Untitled UDF Volume76
Performer : MacX-DVD-Rip
Genre : Classic
Writing application : DigiArty AV Encoder Core

Video
ID : 1
Format : MPEG-4 Visual
Format profile : Simple@L1
Format settings, BVOP : No
Format settings, QPel : No
Format settings, GMC : No warppoints
Format settings, Matrix : Default (H.263)
Codec ID : 20
Duration : 1h 39mn
Bit rate : 1 500 Kbps
Width : 720 pixels
Height : 404 pixels
Display aspect ratio : 16:9
Frame rate mode : Constant
Frame rate : 29.970 fps
Color space : YUV
Chroma subsampling : 4:2:0
Bit depth : 8 bits
Scan type : Progressive
Compression mode : Lossy
Bits/(Pixel*Frame) : 0.172
Stream size : 1.05 GiB (92%)
Writing library : DigiArty AV Encoder Core

Audio
ID : 2
Format : AAC
Format/Info : Advanced Audio Codec
Format profile : LC
Codec ID : 40
Duration : 1h 39mn
Bit rate mode : Variable
Bit rate : 128 Kbps
Channel(s) : 2 channels
Channel positions : Front: L R
Sampling rate : 48.0 KHz
Compression mode : Lossy
Stream size : 91.4 MiB (8%)

[/code]
Screeens:
[img]http://www.hotimg.com/direct/SYkVPRz.png[/img]
[img]http://www.hotimg.com/direct/S4rjVUr.png[/img]
[img]http://www.hotimg.com/direct/eVWMVQd.png[/img]